<?xml version="1.0" encoding="utf-8"?>
<!-- Generator: Adobe Illustrator 24.3.0, SVG Export Plug-In . SVG Version: 6.00 Build 0)  -->
<svg version="1.1" id="Слой_1" xmlns="http://www.w3.org/2000/svg" xmlns:xlink="http://www.w3.org/1999/xlink" x="0px" y="0px"
	 viewBox="0 0 68 67.7" style="enable-background:new 0 0 68 67.7;" xml:space="preserve">
<style type="text/css">
	.st0{fill:#AF3333;}
	.st1{fill:#802B2B;}
	.st2{fill:#C83E3E;}
	.st3{fill:#FFFFFF;}
</style>
<path class="st0" d="M22.1,3.3C14.5,3.5,9.2,6.1,6.2,11L5,13.4C3.9,16.1,3.4,19,3.3,22v24c0,2.9,0.6,5.8,1.7,8.5
	c2.7,6.8,8.9,10.2,18.4,10.1h21.2c13.4,0,20.2-6.7,20.2-20.2V23.4c0-5.1-1-9.3-2.9-12.4c-3-4.9-8.4-7.4-16-7.7H22.1 M21.6,2h34.6
	c6.3,0,9.6,3,9.8,9v45.2c0,6.5-3.3,9.8-9.8,9.8H11.9C9.4,66.2,7,65.4,5,64c-2-1.6-3-4.3-3-7.8V11.9C2,5.3,5.3,2,11.9,2H21.6"/>
<path class="st1" d="M21.6,2h-9.7C5.3,2,2,5.3,2,11.9v44.3c0,3.6,1,6.2,3,7.8c2,1.4,4.4,2.2,6.9,2h44.2c6.6,0,9.8-3.3,9.8-9.8V11
	c-0.3-6-3.6-9-9.8-9H21.6 M23,0h33.1C63.8,0,67.7,3.7,68,11v45.2C68,64.1,64,68,56.2,68H11.9c-2.4,0.1-4.8-0.5-6.9-1.6
	C1.9,64.5,0.2,59.7,0.1,52V11.9C0.1,4,4,0,11.9,0H23"/>
<path class="st2" d="M22.1,3.3h23.8c7.6,0.3,12.9,2.8,16,7.7c1.9,3.2,2.9,7.3,2.9,12.4v21.1c0,13.4-6.7,20.1-20.2,20.1H23.4
	c-9.5,0-15.7-3.4-18.4-10.1c-1.1-2.7-1.6-5.6-1.7-8.5V22c0-3,0.6-5.9,1.7-8.6L6.2,11C9.2,6.1,14.5,3.6,22.1,3.3 M38.3,38.3
	c0.9-0.9,1.5-2,1.7-3.2v-0.5V34c0-3.3-2.7-6-6-6c-1.6,0-3.1,0.6-4.3,1.8C28.6,30.9,28,32.4,28,34l0,0.5l0,0.4
	c0.2,1.3,0.7,2.4,1.6,3.3C32.1,40.6,35.9,40.6,38.3,38.3C38.2,38.3,38.2,38.3,38.3,38.3"/>
<path class="st3" d="M38.3,38.3c-2.3,2.3-6.1,2.4-8.5,0c0,0,0,0,0,0c-0.9-0.9-1.5-2.1-1.6-3.3l0-0.4L28,34c0-3.3,2.7-6,6-6
	c1.6,0,3.1,0.6,4.3,1.8c1.1,1.1,1.8,2.7,1.8,4.3v0.5V35C39.8,36.3,39.2,37.4,38.3,38.3"/>
</svg>
