<?xml version="1.0" encoding="utf-8"?>
<!-- Generator: Adobe Illustrator 24.3.0, SVG Export Plug-In . SVG Version: 6.00 Build 0)  -->
<svg version="1.1" id="Слой_1" xmlns="http://www.w3.org/2000/svg" xmlns:xlink="http://www.w3.org/1999/xlink" x="0px" y="0px"
	 viewBox="0 0 67.9 67.7" style="enable-background:new 0 0 67.9 67.7;" xml:space="preserve">
<style type="text/css">
	.st0{fill:#AF3333;}
	.st1{fill:#802B2B;}
	.st2{fill:#C83E3E;}
	.st3{fill:#FFFFFF;}
</style>
<path class="st0" d="M46.3,2h9.8c6.3,0,9.6,3,9.8,9v45.2c0,6.5-3.2,9.8-9.8,9.8H11.9C5.3,66,2,62.7,2,56.2V11.9V11
	c0.3-6,3.6-9,9.9-9H46.3 M44.5,3.3H22C14.4,3.5,9.1,6.1,6.1,10.9C4.2,14.3,3.3,18.1,3.3,22v24c0.4,12.5,7.1,18.7,20.1,18.7h21.2
	c13.4,0,20.1-6.7,20.2-20.2V23.4c0-5.1-1-9.3-2.9-12.4c-3-4.9-8.3-7.4-16-7.7H44.5"/>
<path class="st1" d="M46.3,2H11.9c-6.3,0-9.5,3-9.8,9v0.9v44.3c0,6.5,3.2,9.8,9.8,9.8h44.3c6.6,0,9.9-3.3,9.9-9.8V11
	c-0.3-6-3.6-9-9.9-9H46.3 M56.1,0C63.7,0,67.7,3.7,68,11v45.2C68,64.1,64,68,56.1,68H11.9C4,68,0,63.7,0,55.2V11.9L0.1,11
	C0.3,3.7,4.3,0,11.9,0H56.1"/>
<path class="st2" d="M44.5,3.3h1.3c7.6,0.3,12.9,2.8,16,7.7c1.9,3.2,2.9,7.3,2.9,12.4v21.1c0,13.4-6.7,20.1-20.2,20.1H23.4
	C10.4,64.7,3.8,58.5,3.3,46V22c0-3.9,1-7.6,2.9-11c3-4.9,8.3-7.4,15.9-7.7L44.5,3.3 M54.9,50l0.1-0.5V49c0-3.3-2.7-6-6-6s-6,2.7-6,6
	v0.5v0.4c0.2,1.3,0.7,2.4,1.7,3.3c2.3,2.3,6.1,2.4,8.5,0c0,0,0,0,0,0C54,52.4,54.6,51.3,54.9,50 M13,19l0.1,0.5l0.1,0.4
	c0.2,1.3,0.7,2.4,1.6,3.4c1.1,1.1,2.7,1.8,4.3,1.8c1.6,0,3.1-0.6,4.3-1.8c0.9-0.9,1.5-2,1.7-3.2l0-0.5V19c0-3.3-2.7-6-6-6
	S13,15.7,13,19"/>
<path class="st3" d="M13,19c0-3.3,2.7-6,6-6s6,2.7,6,6v0.5l0,0.5c-0.2,1.2-0.8,2.3-1.7,3.2C22.1,24.4,20.6,25,19,25
	c-1.6,0-3.1-0.6-4.3-1.8c-0.9-0.9-1.5-2.1-1.6-3.4L13,19.5V19 M55.2,50c-0.2,1.2-0.8,2.3-1.7,3.2c-2.3,2.3-6.1,2.4-8.5,0
	c0,0,0,0,0,0c-0.9-0.9-1.5-2.1-1.7-3.3v-0.4V49c0-3.3,2.7-6,6-6s6,2.7,6,6v0.5L55.2,50"/>
</svg>
